<svg width="416" height="83" viewBox="0 0 416 83" fill="none" xmlns="http://www.w3.org/2000/svg">
<path d="M39.576 66.736C38.936 66.736 38.392 66.512 37.944 66.064C37.496 65.68 37.336 65.072 37.464 64.24C37.848 62.128 38.104 60.656 38.232 59.824C38.424 59.056 38.552 58.48 38.616 58.096C38.744 57.712 38.872 57.168 39 56.464C39.192 55.76 39.416 54.448 39.672 52.528C40.184 49.456 40.536 46.608 40.728 43.984C40.92 41.296 41.048 38.832 41.112 36.592C38.68 36.848 36.376 37.104 34.2 37.36C32.088 37.616 29.72 38.224 27.096 39.184H27C25.976 39.568 24.984 40.112 24.024 40.816C23.064 41.456 21.912 42.032 20.568 42.544C20.184 42.672 19.864 42.736 19.608 42.736C18.84 42.736 18.264 42.416 17.88 41.776C17.56 41.072 17.464 40.4 17.592 39.76C17.144 40.464 16.696 41.072 16.248 41.584C15.16 43.184 14.2 44.592 13.368 45.808C12.6 46.96 11.672 48.336 10.584 49.936C9.56 51.408 8.664 53.04 7.896 54.832C7.128 56.56 6.296 58.16 5.4 59.632C4.952 60.272 4.376 60.592 3.672 60.592C2.968 60.592 2.328 60.304 1.752 59.728C1.176 59.152 0.888 58.48 0.888 57.712C0.888 57.264 1.016 56.816 1.272 56.368C2.232 54.896 3.096 53.648 3.864 52.624C4.696 51.536 5.592 50.288 6.552 48.88C7.704 47.216 8.664 45.808 9.432 44.656C10.264 43.504 11.192 42.16 12.216 40.624C13.432 38.832 14.52 37.264 15.48 35.92C16.504 34.576 17.496 33.232 18.456 31.888C19.48 30.48 20.568 28.912 21.72 27.184C22.744 25.584 23.544 24.08 24.12 22.672C24.76 21.2 25.432 19.76 26.136 18.352C26.904 16.944 27.992 15.536 29.4 14.128L29.496 14.032C30.968 12.56 32.44 10.832 33.912 8.848C35.384 6.8 36.44 5.072 37.08 3.664C38.296 2.256 39.64 1.552 41.112 1.552C42.84 1.552 44.28 2.512 45.432 4.432C45.688 5.072 45.848 5.68 45.912 6.256C45.976 6.832 46.008 7.408 46.008 7.984C46.008 8.88 45.944 9.744 45.816 10.576C45.752 11.408 45.72 12.24 45.72 13.072C45.784 15.184 45.816 17.072 45.816 18.736C45.88 20.336 45.912 22.032 45.912 23.824C45.912 24.656 45.912 25.52 45.912 26.416C45.912 27.312 45.88 28.272 45.816 29.296C45.816 29.552 45.784 29.904 45.72 30.352C45.72 30.8 45.72 31.12 45.72 31.312H46.68C47.448 31.312 48.024 31.504 48.408 31.888C48.792 32.272 48.984 32.72 48.984 33.232C48.984 33.744 48.792 34.256 48.408 34.768C48.024 35.216 47.416 35.504 46.584 35.632C46.392 35.696 46.2 35.76 46.008 35.824C45.816 35.824 45.592 35.888 45.336 36.016C45.208 37.36 45.08 38.736 44.952 40.144C44.824 41.488 44.664 42.992 44.472 44.656C44.216 47.152 43.992 49.392 43.8 51.376C43.672 53.296 43.48 55.28 43.224 57.328C43.032 59.312 42.68 61.744 42.168 64.624C42.04 65.328 41.72 65.84 41.208 66.16C40.696 66.544 40.152 66.736 39.576 66.736ZM25.56 29.296C24.28 31.344 23.128 32.976 22.104 34.192C21.08 35.408 20.024 36.752 18.936 38.224L19.224 37.936C20.44 37.488 21.496 37.008 22.392 36.496C23.352 35.92 24.504 35.504 25.848 35.248C25.848 35.248 26.68 35.056 28.344 34.672C30.008 34.288 32.024 33.84 34.392 33.328C36.824 32.752 39.128 32.272 41.304 31.888L41.4 28.624C41.4 28.048 41.4 27.472 41.4 26.896C41.464 26.32 41.496 25.808 41.496 25.36C41.496 23.312 41.432 21.456 41.304 19.792C41.24 18.128 41.176 16.016 41.112 13.456C41.24 12.56 41.336 11.728 41.4 10.96C41.464 10.192 41.496 9.488 41.496 8.848C41.496 7.824 41.4 7.12 41.208 6.736C41.08 6.736 40.856 6.768 40.536 6.832C40.28 6.832 40.024 6.96 39.768 7.216C38.616 7.984 37.592 9.168 36.696 10.768C35.864 12.368 34.744 14.224 33.336 16.336V16.24C31.736 18.608 30.456 20.752 29.496 22.672C28.536 24.528 27.224 26.736 25.56 29.296ZM66.2685 55.408C65.1805 55.408 64.0605 55.248 62.9085 54.928C61.7565 54.608 60.6045 54.128 59.4525 53.488C57.3405 52.272 55.8685 50.704 55.0365 48.784C54.2045 46.864 53.7885 44.816 53.7885 42.64C53.7885 41.616 53.8525 40.624 53.9805 39.664C54.1085 38.64 54.3005 37.616 54.5565 36.592C55.0685 34.48 55.9645 32.56 57.2445 30.832C58.5245 29.04 59.9645 27.536 61.5645 26.32C63.1645 25.104 64.7005 24.336 66.1725 24.016C66.3645 23.952 66.6205 23.92 66.9405 23.92C67.8365 23.92 68.5725 24.176 69.1485 24.688C69.7245 25.2 70.0125 25.776 70.0125 26.416C70.0125 27.184 69.5645 27.792 68.6685 28.24V28.336C67.1965 28.976 65.8845 29.648 64.7325 30.352C63.6445 30.992 62.6845 31.888 61.8525 33.04C61.0205 34.192 60.2525 35.856 59.5485 38.032C59.1645 39.184 58.9725 40.72 58.9725 42.64C58.9725 44.112 59.1645 45.52 59.5485 46.864C59.9965 48.144 60.7325 49.008 61.7565 49.456C62.8445 49.904 63.9965 50.128 65.2125 50.128C67.8365 50.128 70.4285 49.232 72.9885 47.44C75.5485 45.584 77.8205 43.664 79.8045 41.68C81.5965 39.888 83.2605 37.872 84.7965 35.632C86.3965 33.328 87.7405 31.216 88.8285 29.296C89.9165 27.312 90.5565 25.872 90.7485 24.976C91.0045 23.888 91.7085 23.344 92.8605 23.344C93.5645 23.344 94.2045 23.632 94.7805 24.208C95.3565 24.72 95.5165 25.424 95.2605 26.32C94.8765 27.664 94.1085 29.424 92.9565 31.6C91.8685 33.776 90.5245 36.048 88.9245 38.416C87.3885 40.72 85.7565 42.832 84.0285 44.752C82.6205 46.352 80.9885 47.984 79.1325 49.648C77.2765 51.248 75.2605 52.624 73.0845 53.776C70.9085 54.864 68.6365 55.408 66.2685 55.408ZM107.921 63.28C107.665 63.28 107.441 63.248 107.249 63.184C107.057 63.184 106.833 63.152 106.577 63.088C104.785 62.64 103.025 61.936 101.297 60.976C99.6325 60.016 98.2565 58.608 97.1685 56.752C96.0805 54.832 95.5365 52.336 95.5365 49.264C95.5365 48.048 95.6325 46.736 95.8245 45.328C96.1445 43.088 96.7205 40.464 97.5525 37.456C98.4485 34.384 99.5045 31.184 100.721 27.856H100.625C100.241 27.856 99.8885 27.92 99.5685 28.048C99.2485 28.176 98.9285 28.24 98.6085 28.24C97.5845 28.24 97.0725 27.632 97.0725 26.416C97.0725 25.712 97.3605 25.04 97.9365 24.4C98.5125 23.76 99.0565 23.44 99.5685 23.44L102.449 23.344C104.049 19.184 105.649 15.248 107.249 11.536C108.913 7.76 110.321 4.784 111.473 2.608C111.793 2.032 112.241 1.616 112.817 1.36C113.457 1.04 114.097 0.879997 114.737 0.879997C115.377 0.879997 115.921 1.04 116.369 1.36C116.881 1.616 117.137 2 117.137 2.512C117.137 2.64 117.073 2.896 116.945 3.27999L110.993 16.24C110.417 17.456 109.873 18.608 109.361 19.696C108.913 20.784 108.433 21.872 107.921 22.96C109.201 22.96 110.513 22.992 111.857 23.056C113.265 23.12 114.833 23.248 116.561 23.44C116.881 23.504 117.201 23.728 117.521 24.112C117.841 24.496 118.001 24.912 118.001 25.36C118.001 25.68 117.873 26 117.617 26.32C117.425 26.576 116.977 26.736 116.273 26.8C114.737 26.992 113.041 27.12 111.185 27.184C109.329 27.184 107.665 27.216 106.193 27.28C104.72 31.184 103.537 34.736 102.641 37.936C101.809 41.136 101.137 44.144 100.625 46.96C100.561 47.408 100.497 47.856 100.433 48.304C100.433 48.752 100.433 49.168 100.433 49.552C100.433 52.432 101.201 54.576 102.737 55.984C104.273 57.392 106.001 58.384 107.921 58.96C109.073 59.344 109.873 59.728 110.321 60.112C110.833 60.56 111.089 60.976 111.089 61.36C111.089 61.872 110.769 62.32 110.129 62.704C109.553 63.088 108.817 63.28 107.921 63.28ZM128.556 56.176C128.172 56.176 127.788 56.176 127.404 56.176C127.02 56.112 126.636 56.048 126.252 55.984C123.628 55.664 121.58 54.416 120.108 52.24C118.7 50 117.996 47.504 117.996 44.752C117.996 42.96 118.348 41.072 119.052 39.088C119.82 37.04 121.004 35.184 122.604 33.52C124.204 31.792 126.06 30.416 128.172 29.392C130.284 28.368 132.428 27.856 134.604 27.856C135.692 27.856 136.716 27.984 137.676 28.24C138.7 28.496 139.212 29.008 139.212 29.776C139.212 30.288 138.924 30.8 138.348 31.312C137.836 31.76 137.132 31.888 136.236 31.696C135.98 31.632 135.564 31.6 134.988 31.6C133.452 31.6 131.884 32.016 130.284 32.848C128.684 33.68 127.244 34.8 125.964 36.208C124.684 37.552 123.756 39.056 123.18 40.72C122.732 42 122.508 43.28 122.508 44.56C122.508 46.544 122.956 48.24 123.852 49.648C124.812 51.056 125.9 51.76 127.116 51.76C127.436 51.824 127.724 51.856 127.98 51.856C128.3 51.856 128.588 51.856 128.844 51.856C131.66 51.856 134.348 51.088 136.908 49.552C139.532 47.952 141.548 46.224 142.956 44.368C143.66 43.28 144.14 42.32 144.396 41.488C144.652 40.592 144.78 39.856 144.78 39.28C144.78 38 144.396 37.136 143.628 36.688C142.86 36.24 142.156 36.048 141.516 36.112C140.492 36.24 139.5 36.4 138.54 36.592C137.58 36.72 136.748 36.944 136.044 37.264C135.66 37.392 135.372 37.456 135.18 37.456C134.54 37.456 133.996 37.2 133.548 36.688C133.164 36.176 132.972 35.632 132.972 35.056C132.972 34.032 133.452 33.36 134.412 33.04C135.308 32.72 136.364 32.432 137.58 32.176C138.796 31.92 140.044 31.728 141.324 31.6C141.58 31.536 141.804 31.504 141.996 31.504C142.188 31.504 142.412 31.504 142.668 31.504C144.972 31.504 146.764 32.208 148.044 33.616C149.324 34.96 149.964 36.624 149.964 38.608C149.964 39.824 149.676 41.136 149.1 42.544C148.524 43.952 147.596 45.296 146.316 46.576C145.164 48.048 143.692 49.52 141.9 50.992C140.108 52.464 138.092 53.712 135.852 54.736C133.612 55.696 131.18 56.176 128.556 56.176ZM162.625 38.32C161.793 38.448 161.121 38.288 160.609 37.84C160.161 37.328 159.937 36.752 159.937 36.112C159.937 35.6 160.097 35.12 160.417 34.672C160.801 34.16 161.345 33.84 162.049 33.712C162.689 33.584 164.001 33.456 165.985 33.328C167.969 33.136 170.209 32.976 172.705 32.848C175.265 32.72 177.601 32.656 179.713 32.656C181.953 32.656 183.649 32.752 184.801 32.944C185.761 33.136 186.241 33.456 186.241 33.904C186.241 34.352 185.857 34.832 185.089 35.344C184.321 35.792 183.393 36.048 182.305 36.112C179.553 36.176 176.833 36.368 174.145 36.688C171.521 37.008 169.185 37.328 167.137 37.648C165.089 37.904 163.585 38.128 162.625 38.32ZM214.331 63.28C210.299 63.28 206.619 62.544 203.291 61.072C200.027 59.664 197.595 57.776 195.995 55.408C194.907 53.744 194.107 52.08 193.595 50.416C193.083 48.688 192.827 46.928 192.827 45.136C192.827 42.448 193.275 39.824 194.171 37.264C195.067 34.64 196.219 32.144 197.627 29.776C199.099 27.344 200.571 25.168 202.043 23.248C204.795 19.664 208.059 16.304 211.835 13.168C215.611 10.032 219.579 7.344 223.739 5.104C227.963 2.8 232.027 1.264 235.931 0.495996C236.827 0.303995 237.723 0.207994 238.619 0.207994C240.091 0.207994 241.307 0.431995 242.267 0.879997C243.227 1.328 243.707 1.904 243.707 2.608C243.707 3.376 243.099 4.176 241.883 5.008C241.435 5.264 240.923 5.392 240.347 5.392C239.707 5.392 239.035 5.328 238.331 5.2C237.627 5.008 237.083 4.944 236.699 5.008C233.371 5.64799 229.755 7.024 225.851 9.136C222.011 11.248 218.299 13.776 214.715 16.72C211.195 19.664 208.187 22.768 205.691 26.032C203.515 28.784 201.659 31.856 200.123 35.248C198.587 38.64 197.819 41.936 197.819 45.136C197.819 46.544 197.979 47.888 198.299 49.168C198.683 50.448 199.259 51.632 200.027 52.72C200.667 53.616 201.819 54.64 203.483 55.792C205.147 56.88 207.099 57.808 209.339 58.576C211.579 59.344 213.883 59.728 216.251 59.728C217.211 59.728 218.171 59.632 219.131 59.44C220.091 59.312 221.019 59.056 221.915 58.672C225.307 57.264 227.963 55.92 229.883 54.64C231.867 53.296 233.467 52.048 234.683 50.896C235.899 49.68 237.051 48.656 238.139 47.824C239.291 46.352 240.123 45.104 240.635 44.08C241.147 42.992 241.403 42.128 241.403 41.488C241.403 40.4 240.699 39.856 239.291 39.856C237.499 39.92 234.843 40.272 231.323 40.912C227.803 41.552 224.251 42.256 220.667 43.024C219.451 43.28 218.523 43.6 217.883 43.984C217.307 44.368 216.763 44.752 216.251 45.136C215.803 45.52 215.099 45.904 214.139 46.288C213.755 46.416 213.467 46.48 213.275 46.48C212.635 46.48 212.123 46.256 211.739 45.808C211.355 45.36 211.163 44.816 211.163 44.176C211.163 43.088 211.739 42.32 212.891 41.872C213.403 41.68 214.491 41.36 216.155 40.912C217.883 40.4 219.931 39.824 222.299 39.184C224.667 38.544 227.067 37.936 229.499 37.36C231.931 36.72 234.139 36.208 236.123 35.824C238.107 35.44 239.547 35.248 240.443 35.248C244.411 35.376 246.395 36.848 246.395 39.664C246.395 42.096 244.923 45.168 241.979 48.88C241.723 49.136 241.083 49.872 240.059 51.088C239.035 52.304 237.627 53.68 235.835 55.216C234.043 56.752 231.899 58.192 229.403 59.536C226.907 60.944 224.059 61.968 220.859 62.608C219.771 62.864 218.683 63.024 217.595 63.088C216.507 63.216 215.419 63.28 214.331 63.28ZM254.039 56.464C253.463 56.464 252.919 56.24 252.407 55.792C251.959 55.28 251.735 54.448 251.735 53.296C251.735 53.04 251.735 52.784 251.735 52.528C251.799 52.208 251.863 51.888 251.927 51.568C252.503 48.752 253.239 45.776 254.135 42.64C255.095 39.504 256.055 36.56 257.015 33.808C257.975 30.992 258.679 28.784 259.127 27.184C259.447 26.16 259.895 25.424 260.471 24.976C261.111 24.528 261.751 24.304 262.391 24.304C263.095 24.304 263.671 24.528 264.119 24.976C264.631 25.36 264.887 25.904 264.887 26.608C264.887 27.184 264.695 27.824 264.311 28.528C263.927 29.232 263.447 30.352 262.871 31.888C262.359 33.424 261.847 34.96 261.335 36.496C260.823 38.032 260.375 39.184 259.991 39.952C262.231 37.776 264.247 35.984 266.039 34.576C267.831 33.168 270.199 31.792 273.143 30.448C274.423 29.808 276.087 29.488 278.135 29.488C279.607 29.488 281.079 29.776 282.551 30.352C284.023 30.928 285.239 31.952 286.199 33.424C287.159 34.896 287.639 36.976 287.639 39.664C287.639 40.688 287.063 41.2 285.911 41.2C285.463 41.2 284.983 41.008 284.471 40.624C284.023 40.24 283.639 39.6 283.319 38.704C282.871 37.232 282.167 36.08 281.207 35.248C280.311 34.352 279.127 33.904 277.655 33.904C276.759 33.904 275.735 34.096 274.583 34.48C273.175 34.928 271.415 35.792 269.303 37.072C267.191 38.288 265.015 39.824 262.775 41.68C260.599 43.536 258.583 45.648 256.727 48.016C256.727 48.464 256.631 48.976 256.439 49.552C256.311 50.128 256.247 50.768 256.247 51.472C256.247 51.6 256.311 51.92 256.439 52.432C256.567 52.944 256.631 53.456 256.631 53.968C256.631 54.672 256.343 55.28 255.767 55.792C255.255 56.24 254.679 56.464 254.039 56.464ZM302.273 55.888C300.481 55.888 298.721 55.504 296.993 54.736C295.329 53.968 293.953 52.912 292.865 51.568C291.777 50.224 291.233 48.688 291.233 46.96C291.233 44.4 291.905 42.16 293.249 40.24C294.593 38.32 296.289 36.688 298.337 35.344C300.449 34 302.593 32.976 304.769 32.272C306.881 31.568 309.185 31.216 311.681 31.216C314.305 31.216 316.833 31.696 319.265 32.656C321.761 33.552 323.521 35.12 324.545 37.36C325.057 35.696 325.441 34.064 325.697 32.464C325.953 30.8 326.081 29.36 326.081 28.144C326.081 26.096 325.665 24.528 324.833 23.44C324.065 22.352 322.657 21.808 320.609 21.808C319.777 21.808 318.817 22.128 317.729 22.768C316.641 23.344 315.585 24.112 314.561 25.072C314.177 25.456 313.889 25.712 313.697 25.84C313.569 25.968 313.217 26.032 312.641 26.032C312.001 26.032 311.489 25.808 311.105 25.36C310.785 24.912 310.625 24.4 310.625 23.824C310.625 23.056 310.913 22.384 311.489 21.808C312.065 21.232 312.705 20.592 313.409 19.888C314.113 19.184 315.009 18.576 316.097 18.064C317.249 17.488 318.689 17.2 320.417 17.2C324.001 17.2 326.625 18.032 328.289 19.696C329.953 21.36 330.785 24.08 330.785 27.856C330.785 29.712 330.529 31.632 330.017 33.616C329.569 35.6 329.025 37.712 328.385 39.952C328.001 41.36 327.457 42.96 326.753 44.752C326.113 46.48 325.281 48.208 324.257 49.936C323.233 51.664 321.985 53.136 320.513 54.352C320.065 54.736 319.585 54.928 319.073 54.928C318.433 54.928 317.889 54.704 317.441 54.256C316.993 53.808 316.769 53.296 316.769 52.72C316.769 52.144 317.057 51.568 317.633 50.992C318.337 50.416 319.073 49.488 319.841 48.208C320.673 46.928 321.441 45.328 322.145 43.408C321.953 40.784 320.705 38.864 318.401 37.648C316.161 36.432 313.665 35.824 310.913 35.824C309.313 35.824 307.777 36.016 306.305 36.4C304.705 36.848 303.105 37.616 301.505 38.704C299.905 39.728 298.561 40.944 297.473 42.352C296.449 43.76 295.937 45.232 295.937 46.768C295.937 47.984 296.545 49.072 297.761 50.032C299.041 50.992 300.545 51.472 302.273 51.472C303.745 51.472 304.897 51.44 305.729 51.376C306.625 51.312 307.457 51.12 308.225 50.8C309.057 50.416 310.113 49.744 311.393 48.784C311.969 48.4 312.449 48.208 312.833 48.208C313.345 48.208 313.761 48.368 314.081 48.688C314.401 49.008 314.561 49.424 314.561 49.936C314.561 50.64 314.209 51.248 313.505 51.76C311.329 53.552 309.409 54.704 307.745 55.216C306.145 55.664 304.321 55.888 302.273 55.888ZM333.199 82.672C332.175 82.672 331.183 82.256 330.223 81.424C329.199 80.592 328.783 79.28 328.975 77.488C329.103 75.824 329.551 73.584 330.319 70.768C331.087 68.016 332.047 64.944 333.199 61.552C334.351 58.16 335.631 54.672 337.039 51.088C338.447 47.44 339.855 43.92 341.263 40.528C342.671 37.072 344.015 33.968 345.295 31.216C346.575 28.4 347.663 26.128 348.559 24.4C349.135 23.376 349.935 22.864 350.959 22.864C351.599 22.864 352.143 23.088 352.591 23.536C353.039 23.92 353.263 24.528 353.263 25.36C353.263 25.872 353.071 26.704 352.687 27.856C352.303 28.944 351.823 29.872 351.247 30.64C350.351 31.792 349.391 33.232 348.367 34.96C347.343 36.624 346.383 38.384 345.487 40.24C348.815 35.568 352.303 31.92 355.951 29.296C359.599 26.672 363.567 24.752 367.855 23.536C368.495 23.344 369.103 23.216 369.679 23.152C370.255 23.088 370.799 23.056 371.311 23.056C373.935 23.056 375.791 23.952 376.879 25.744C378.031 27.536 378.607 29.456 378.607 31.504C378.607 33.744 378.127 35.6 377.167 37.072C375.439 40.592 373.423 43.504 371.119 45.808C368.815 48.048 366.319 49.904 363.631 51.376C361.007 52.784 358.255 54.096 355.375 55.312C353.967 55.952 352.719 56.4 351.631 56.656C350.607 56.848 349.711 56.944 348.943 56.944C347.791 56.944 346.991 56.688 346.543 56.176C346.095 55.664 345.871 55.088 345.871 54.448C345.871 53.552 346.127 52.72 346.639 51.952C347.151 51.184 347.631 50.864 348.079 50.992C348.527 51.056 349.071 51.152 349.711 51.28C350.351 51.408 351.023 51.472 351.727 51.472C353.391 51.472 354.799 51.184 355.951 50.608C357.807 49.648 359.727 48.56 361.711 47.344C363.759 46.128 365.743 44.56 367.663 42.64C369.647 40.656 371.375 38.128 372.847 35.056C373.231 33.968 373.423 32.912 373.423 31.888C373.423 30.8 373.135 29.872 372.559 29.104C372.047 28.336 371.151 27.952 369.871 27.952C367.759 27.952 365.071 28.912 361.807 30.832C358.543 32.688 355.119 35.312 351.535 38.704C347.951 42.096 344.559 46.032 341.359 50.512C339.951 54.096 338.639 57.616 337.423 61.072C336.271 64.528 335.343 67.6 334.639 70.288C333.935 73.04 333.519 75.056 333.391 76.336C333.327 77.04 333.711 77.776 334.543 78.544C335.375 79.312 335.791 80.08 335.791 80.848C335.791 81.36 335.471 81.84 334.831 82.288C334.511 82.544 333.967 82.672 333.199 82.672ZM408.977 60.304C407.569 60.304 406.577 59.696 406.001 58.48C405.425 57.264 405.137 55.824 405.137 54.16C405.137 52.112 405.457 49.904 406.097 47.536C406.737 45.168 407.377 43.248 408.017 41.776C408.913 39.664 409.617 37.808 410.129 36.208C410.641 34.608 410.897 33.328 410.897 32.368C410.897 31.216 410.545 30.64 409.841 30.64C409.393 30.576 408.465 30.864 407.057 31.504C405.649 32.144 404.177 33.008 402.641 34.096C401.681 34.736 400.401 35.696 398.801 36.976C397.201 38.192 395.537 39.536 393.809 41.008C392.081 42.48 390.545 43.92 389.201 45.328C387.409 47.184 386.193 48.912 385.553 50.512C385.169 51.472 384.529 51.952 383.633 51.952C383.057 51.952 382.577 51.696 382.193 51.184C381.809 50.608 381.681 49.744 381.809 48.592C382.129 46.48 382.737 43.888 383.633 40.816C384.593 37.744 385.681 34.448 386.897 30.928C388.177 27.344 389.521 23.792 390.929 20.272C392.337 16.688 393.713 13.36 395.057 10.288C396.465 7.216 397.713 4.656 398.801 2.608C399.377 1.584 400.177 1.07199 401.201 1.07199C401.777 1.07199 402.289 1.296 402.737 1.744C403.185 2.128 403.409 2.704 403.409 3.472C403.409 3.728 403.313 4.272 403.121 5.104C402.993 5.936 402.769 6.8 402.449 7.696C402.193 8.592 401.873 9.328 401.489 9.904C400.849 10.928 400.081 11.984 399.185 13.072C398.289 14.16 397.489 15.44 396.785 16.912C395.249 20.24 394.001 23.088 393.041 25.456C392.081 27.76 391.313 29.808 390.737 31.6C390.225 33.392 389.777 35.024 389.393 36.496C389.009 37.968 388.593 39.504 388.145 41.104C388.657 40.272 389.137 39.6 389.585 39.088C390.033 38.576 390.481 38.096 390.929 37.648C392.209 36.368 393.745 35.056 395.537 33.712C397.329 32.368 399.185 31.088 401.105 29.872C403.089 28.656 404.945 27.696 406.673 26.992C408.465 26.224 409.905 25.84 410.993 25.84C412.209 25.84 413.329 26.256 414.353 27.088C415.377 27.856 415.889 29.36 415.889 31.6C415.889 32.88 415.665 34.448 415.217 36.304C414.833 38.096 414.097 40.208 413.009 42.64C412.113 44.816 411.313 47.152 410.609 49.648C409.969 52.08 409.553 54.032 409.361 55.504C410.001 56.464 410.321 57.52 410.321 58.672C410.321 59.76 409.873 60.304 408.977 60.304Z" fill="white"/>
</svg>
