<svg width="309" height="245" viewBox="0 0 309 245" fill="none" xmlns="http://www.w3.org/2000/svg">
<line x1="13.2945" y1="122.861" x2="51.2945" y2="145.861" stroke="#616161" stroke-width="5"/>
<line x1="100.367" y1="114.093" x2="51.367" y2="146.093" stroke="#616161" stroke-width="5"/>
<path d="M138.953 136.472C135.273 142.85 137.461 151.004 143.839 154.684C150.218 158.364 158.371 156.176 162.051 149.798C165.731 143.419 163.543 135.265 157.165 131.586C150.786 127.906 142.632 130.093 138.953 136.472ZM98.7507 116.165L149.253 145.3L151.751 140.969L101.249 111.835L98.7507 116.165Z" fill="#616161"/>
<line x1="50.5" y1="144" x2="50.5" y2="200" stroke="#616161" stroke-width="5"/>
<line x1="50.2985" y1="199.864" x2="101.299" y2="230.864" stroke="#616161" stroke-width="5"/>
<line x1="98.9497" y1="227.731" x2="152.95" y2="202.731" stroke="#616161" stroke-width="5"/>
<line x1="152.5" y1="144" x2="152.5" y2="202" stroke="#616161" stroke-width="5"/>
<line x1="149.222" y1="141.624" x2="204.222" y2="123.624" stroke="#616161" stroke-width="5"/>
<line x1="207.026" y1="124.535" x2="241.026" y2="171.535" stroke="#616161" stroke-width="5"/>
<line x1="240.961" y1="174.551" x2="206.961" y2="217.551" stroke="#616161" stroke-width="5"/>
<line x1="204.29" y1="218.397" x2="150.29" y2="202.397" stroke="#616161" stroke-width="5"/>
<line x1="202.624" y1="125.222" x2="220.624" y2="70.2224" stroke="#616161" stroke-width="5"/>
<line x1="221.534" y1="68.5438" x2="279.534" y2="57.5438" stroke="#616161" stroke-width="5"/>
<line x1="277.613" y1="59.2573" x2="291.613" y2="14.2573" stroke="#616161" stroke-width="5"/>
<circle cx="100" cy="114" r="14" fill="#D9D9D9" fill-opacity="0.58"/>
<circle cx="100" cy="114" r="14" fill="#D9D9D9" fill-opacity="0.58"/>
<circle cx="100" cy="114" r="14" fill="#424242"/>
<circle cx="100" cy="114" r="14" stroke="white"/>
<circle cx="50" cy="144" r="14" fill="#D9D9D9" fill-opacity="0.58"/>
<circle cx="50" cy="144" r="14" fill="#D9D9D9" fill-opacity="0.58"/>
<circle cx="50" cy="144" r="14" fill="#424242"/>
<circle cx="50" cy="144" r="14" stroke="white"/>
<circle cx="15" cy="123" r="14" fill="#D9D9D9" fill-opacity="0.58"/>
<circle cx="15" cy="123" r="14" fill="#D9D9D9" fill-opacity="0.58"/>
<circle cx="15" cy="123" r="14" fill="#424242"/>
<circle cx="15" cy="123" r="14" stroke="white"/>
<circle cx="50" cy="202" r="14" fill="#D9D9D9" fill-opacity="0.58"/>
<circle cx="50" cy="202" r="14" fill="#D9D9D9" fill-opacity="0.58"/>
<circle cx="50" cy="202" r="14" fill="#424242"/>
<circle cx="50" cy="202" r="14" stroke="white"/>
<circle cx="100" cy="230" r="14" fill="#D9D9D9" fill-opacity="0.58"/>
<circle cx="100" cy="230" r="14" fill="#D9D9D9" fill-opacity="0.58"/>
<circle cx="100" cy="230" r="14" fill="#424242"/>
<circle cx="100" cy="230" r="14" stroke="white"/>
<circle cx="150" cy="202" r="14" fill="#D9D9D9" fill-opacity="0.58"/>
<circle cx="150" cy="202" r="14" fill="#D9D9D9" fill-opacity="0.58"/>
<circle cx="150" cy="202" r="14" fill="#424242"/>
<circle cx="150" cy="202" r="14" stroke="white"/>
<circle cx="150" cy="144" r="14" fill="#D9D9D9" fill-opacity="0.58"/>
<circle cx="150" cy="144" r="14" fill="#D9D9D9" fill-opacity="0.58"/>
<circle cx="150" cy="144" r="14" fill="#424242"/>
<circle cx="150" cy="144" r="14" stroke="white"/>
<circle cx="205" cy="126" r="14" fill="#D9D9D9" fill-opacity="0.58"/>
<circle cx="205" cy="126" r="14" fill="#D9D9D9" fill-opacity="0.58"/>
<circle cx="205" cy="126" r="14" fill="#424242"/>
<circle cx="205" cy="126" r="14" stroke="white"/>
<circle cx="239" cy="173" r="14" fill="#D9D9D9" fill-opacity="0.58"/>
<circle cx="239" cy="173" r="14" fill="#D9D9D9" fill-opacity="0.58"/>
<circle cx="239" cy="173" r="14" fill="#424242"/>
<circle cx="239" cy="173" r="14" stroke="white"/>
<circle cx="205" cy="216" r="14" fill="#D9D9D9" fill-opacity="0.58"/>
<circle cx="205" cy="216" r="14" fill="#D9D9D9" fill-opacity="0.58"/>
<circle cx="205" cy="216" r="14" fill="#424242"/>
<circle cx="205" cy="216" r="14" stroke="white"/>
<circle cx="223" cy="71" r="14" fill="#D9D9D9" fill-opacity="0.58"/>
<circle cx="223" cy="71" r="14" fill="#D9D9D9" fill-opacity="0.58"/>
<circle cx="223" cy="71" r="14" fill="#424242"/>
<circle cx="223" cy="71" r="14" stroke="white"/>
<circle cx="280" cy="60" r="14" fill="#D9D9D9" fill-opacity="0.58"/>
<circle cx="280" cy="60" r="14" fill="#D9D9D9" fill-opacity="0.58"/>
<circle cx="280" cy="60" r="14" fill="#424242"/>
<circle cx="280" cy="60" r="14" stroke="white"/>
<circle cx="294" cy="15" r="14" fill="#D9D9D9" fill-opacity="0.58"/>
<circle cx="294" cy="15" r="14" fill="#D9D9D9" fill-opacity="0.58"/>
<circle cx="294" cy="15" r="14" fill="#424242"/>
<circle cx="294" cy="15" r="14" stroke="white"/>
<path d="M115.693 196L110.253 181.024H89.7725L84.3325 196H82.8605L99.0525 151.328H100.973L117.165 196H115.693ZM100.077 152.8H99.8845L90.2205 179.808H109.805L100.077 152.8Z" fill="white"/>
<path d="M115.693 196L112.873 197.024L113.59 199H115.693V196ZM110.253 181.024L113.072 180L112.355 178.024H110.253V181.024ZM89.7725 181.024V178.024H87.6705L86.9528 180L89.7725 181.024ZM84.3325 196V199H86.4345L87.1522 197.024L84.3325 196ZM82.8605 196L80.0401 194.978L78.5821 199H82.8605V196ZM99.0525 151.328V148.328H96.9489L96.2321 150.306L99.0525 151.328ZM100.973 151.328L103.793 150.306L103.076 148.328H100.973V151.328ZM117.165 196V199H121.443L119.985 194.978L117.165 196ZM100.077 152.8L102.899 151.783L102.185 149.8H100.077V152.8ZM99.8845 152.8V149.8H97.7717L97.0599 151.789L99.8845 152.8ZM90.2205 179.808L87.3959 178.797L85.9608 182.808H90.2205V179.808ZM109.805 179.808V182.808H114.074L112.627 178.791L109.805 179.808ZM118.512 194.976L113.072 180L107.433 182.048L112.873 197.024L118.512 194.976ZM110.253 178.024H89.7725V184.024H110.253V178.024ZM86.9528 180L81.5128 194.976L87.1522 197.024L92.5922 182.048L86.9528 180ZM84.3325 193H82.8605V199H84.3325V193ZM85.6809 197.022L101.873 152.35L96.2321 150.306L80.0401 194.978L85.6809 197.022ZM99.0525 154.328H100.973V148.328H99.0525V154.328ZM98.1521 152.35L114.344 197.022L119.985 194.978L103.793 150.306L98.1521 152.35ZM117.165 193H115.693V199H117.165V193ZM100.077 149.8H99.8845V155.8H100.077V149.8ZM97.0599 151.789L87.3959 178.797L93.0451 180.819L102.709 153.811L97.0599 151.789ZM90.2205 182.808H109.805V176.808H90.2205V182.808ZM112.627 178.791L102.899 151.783L97.254 153.817L106.982 180.825L112.627 178.791Z" fill="#424242"/>
<path d="M204.136 183.528H203.992C203.064 185.448 201.72 186.936 199.96 187.992C198.232 189.048 196.024 189.576 193.336 189.576C189.144 189.576 185.928 188.136 183.688 185.256C181.48 182.376 180.376 178.04 180.376 172.248C180.376 166.456 181.48 162.12 183.688 159.24C185.928 156.36 189.144 154.92 193.336 154.92C195.928 154.92 198.168 155.544 200.056 156.792C201.976 158.04 203.4 159.704 204.328 161.784L203.416 162.216C202.552 160.2 201.24 158.648 199.48 157.56C197.72 156.44 195.672 155.88 193.336 155.88C189.656 155.88 186.76 157.176 184.648 159.768C182.568 162.328 181.528 166.152 181.528 171.24V173.256C181.528 178.344 182.568 182.184 184.648 184.776C186.76 187.336 189.656 188.616 193.336 188.616C194.776 188.616 196.136 188.424 197.416 188.04C198.728 187.624 199.88 187.032 200.872 186.264C201.864 185.464 202.648 184.472 203.224 183.288C203.8 182.104 204.088 180.712 204.088 179.112V174.024H195.64V173.064H205.144V189H204.136V183.528Z" fill="white"/>
<path d="M204.136 183.528H207.136V180.528H204.136V183.528ZM203.992 183.528V180.528H202.11L201.291 182.222L203.992 183.528ZM199.96 187.992L198.416 185.42L198.406 185.426L198.395 185.432L199.96 187.992ZM183.688 185.256L181.307 187.081L181.313 187.09L181.32 187.098L183.688 185.256ZM183.688 159.24L181.32 157.398L181.313 157.406L181.307 157.415L183.688 159.24ZM200.056 156.792L198.401 159.295L198.411 159.301L198.421 159.307L200.056 156.792ZM204.328 161.784L205.612 164.495L208.262 163.24L207.067 160.562L204.328 161.784ZM203.416 162.216L200.658 163.398L201.885 166.261L204.7 164.927L203.416 162.216ZM199.48 157.56L197.869 160.091L197.886 160.101L197.902 160.112L199.48 157.56ZM184.648 159.768L182.322 157.873L182.319 157.876L184.648 159.768ZM184.648 184.776L182.308 186.654L182.321 186.669L182.334 186.685L184.648 184.776ZM197.416 188.04L198.278 190.913L198.3 190.907L198.322 190.9L197.416 188.04ZM200.872 186.264L202.708 188.636L202.732 188.618L202.755 188.599L200.872 186.264ZM204.088 174.024H207.088V171.024H204.088V174.024ZM195.64 174.024H192.64V177.024H195.64V174.024ZM195.64 173.064V170.064H192.64V173.064H195.64ZM205.144 173.064H208.144V170.064H205.144V173.064ZM205.144 189V192H208.144V189H205.144ZM204.136 189H201.136V192H204.136V189ZM204.136 180.528H203.992V186.528H204.136V180.528ZM201.291 182.222C200.606 183.638 199.655 184.676 198.416 185.42L201.503 190.564C203.784 189.196 205.521 187.258 206.693 184.834L201.291 182.222ZM198.395 185.432C197.269 186.121 195.647 186.576 193.336 186.576V192.576C196.4 192.576 199.195 191.975 201.524 190.552L198.395 185.432ZM193.336 186.576C189.913 186.576 187.638 185.448 186.056 183.414L181.32 187.098C184.217 190.824 188.374 192.576 193.336 192.576V186.576ZM186.068 183.431C184.439 181.305 183.376 177.746 183.376 172.248H177.376C177.376 178.334 178.521 183.447 181.307 187.081L186.068 183.431ZM183.376 172.248C183.376 166.75 184.439 163.191 186.068 161.065L181.307 157.415C178.521 161.049 177.376 166.162 177.376 172.248H183.376ZM186.056 161.082C187.638 159.048 189.913 157.92 193.336 157.92V151.92C188.374 151.92 184.217 153.672 181.32 157.398L186.056 161.082ZM193.336 157.92C195.427 157.92 197.073 158.416 198.401 159.295L201.71 154.289C199.263 152.672 196.428 151.92 193.336 151.92V157.92ZM198.421 159.307C199.858 160.242 200.897 161.458 201.588 163.006L207.067 160.562C205.902 157.95 204.093 155.838 201.691 154.277L198.421 159.307ZM203.043 159.073L202.131 159.505L204.7 164.927L205.612 164.495L203.043 159.073ZM206.173 161.034C205.081 158.487 203.374 156.441 201.057 155.008L197.902 160.112C199.105 160.855 200.022 161.913 200.658 163.398L206.173 161.034ZM201.09 155.029C198.793 153.567 196.172 152.88 193.336 152.88V158.88C195.172 158.88 196.647 159.313 197.869 160.091L201.09 155.029ZM193.336 152.88C188.857 152.88 185.066 154.506 182.322 157.873L186.973 161.663C188.453 159.846 190.454 158.88 193.336 158.88V152.88ZM182.319 157.876C179.624 161.193 178.528 165.818 178.528 171.24H184.528C184.528 166.486 185.511 163.463 186.976 161.66L182.319 157.876ZM178.528 171.24V173.256H184.528V171.24H178.528ZM178.528 173.256C178.528 178.682 179.626 183.311 182.308 186.654L186.987 182.898C185.51 181.057 184.528 178.006 184.528 173.256H178.528ZM182.334 186.685C185.082 190.017 188.87 191.616 193.336 191.616V185.616C190.441 185.616 188.437 184.655 186.962 182.867L182.334 186.685ZM193.336 191.616C195.045 191.616 196.697 191.388 198.278 190.913L196.554 185.167C195.574 185.46 194.506 185.616 193.336 185.616V191.616ZM198.322 190.9C199.938 190.387 201.411 189.64 202.708 188.636L199.035 183.892C198.348 184.424 197.517 184.861 196.509 185.18L198.322 190.9ZM202.755 188.599C204.102 187.513 205.159 186.168 205.921 184.6L200.526 181.976C200.136 182.776 199.625 183.415 198.988 183.929L202.755 188.599ZM205.921 184.6C206.734 182.929 207.088 181.07 207.088 179.112H201.088C201.088 180.354 200.865 181.279 200.526 181.976L205.921 184.6ZM207.088 179.112V174.024H201.088V179.112H207.088ZM204.088 171.024H195.64V177.024H204.088V171.024ZM198.64 174.024V173.064H192.64V174.024H198.64ZM195.64 176.064H205.144V170.064H195.64V176.064ZM202.144 173.064V189H208.144V173.064H202.144ZM205.144 186H204.136V192H205.144V186ZM207.136 189V183.528H201.136V189H207.136Z" fill="#424242"/>
</svg>
