<svg width="1600" height="1600" viewBox="0 0 1600 1600" fill="none" xmlns="http://www.w3.org/2000/svg">
<path d="M387 310C387 304.477 391.477 300 397 300H402C407.523 300 412 304.477 412 310V400H387V310Z" fill="#E6E6E6"/>
<path d="M387 400H412V490C412 495.523 407.523 500 402 500H397C391.477 500 387 495.523 387 490V400Z" fill="#E6E6E6"/>
<path d="M400 387H490C495.523 387 500 391.477 500 397V402C500 407.523 495.523 412 490 412H400V387Z" fill="#E6E6E6"/>
<path d="M300 397C300 391.477 304.477 387 310 387H400V412H310C304.477 412 300 407.523 300 402V397Z" fill="#E6E6E6"/>
<path d="M1187 310C1187 304.477 1191.48 300 1197 300H1202C1207.52 300 1212 304.477 1212 310V400H1187V310Z" fill="#E6E6E6"/>
<path d="M1187 400H1212V490C1212 495.523 1207.52 500 1202 500H1197C1191.48 500 1187 495.523 1187 490V400Z" fill="#E6E6E6"/>
<path d="M1200 387H1290C1295.52 387 1300 391.477 1300 397V402C1300 407.523 1295.52 412 1290 412H1200V387Z" fill="#E6E6E6"/>
<path d="M1100 397C1100 391.477 1104.48 387 1110 387H1200V412H1110C1104.48 412 1100 407.523 1100 402V397Z" fill="#E6E6E6"/>
<path d="M387 1110C387 1104.48 391.477 1100 397 1100H402C407.523 1100 412 1104.48 412 1110V1200H387V1110Z" fill="#E6E6E6"/>
<path d="M387 1200H412V1290C412 1295.52 407.523 1300 402 1300H397C391.477 1300 387 1295.52 387 1290V1200Z" fill="#E6E6E6"/>
<path d="M400 1187H490C495.523 1187 500 1191.48 500 1197V1202C500 1207.52 495.523 1212 490 1212H400V1187Z" fill="#E6E6E6"/>
<path d="M300 1197C300 1191.48 304.477 1187 310 1187H400V1212H310C304.477 1212 300 1207.52 300 1202V1197Z" fill="#E6E6E6"/>
<path d="M1187 1110C1187 1104.48 1191.48 1100 1197 1100H1202C1207.52 1100 1212 1104.48 1212 1110V1200H1187V1110Z" fill="#E6E6E6"/>
<path d="M1187 1200H1212V1290C1212 1295.52 1207.52 1300 1202 1300H1197C1191.48 1300 1187 1295.52 1187 1290V1200Z" fill="#E6E6E6"/>
<path d="M1200 1187H1290C1295.52 1187 1300 1191.48 1300 1197V1202C1300 1207.52 1295.52 1212 1290 1212H1200V1187Z" fill="#E6E6E6"/>
<path d="M1100 1197C1100 1191.48 1104.48 1187 1110 1187H1200V1212H1110C1104.48 1212 1100 1207.52 1100 1202V1197Z" fill="#E6E6E6"/>
</svg>
